<svg version="1.1" xmlns="http://www.w3.org/2000/svg" xmlns:xlink="http://www.w3.org/1999/xlink" x="0px" y="0px" viewBox="0 0 611.4 611.4" style="enable-background:new 0 0 611.4 611.4;" xml:space="preserve"><style type="text/css">.st0{fill:#4D5152;} .st1{fill:#FFFFFF;}</style><g id="Capa_1"> <g> <g id="android"> <path class="st0" d="M152.7,458.4c0,15.3,10.2,25.5,25.5,25.5h25.5v89.3c0,20.4,17.9,38.3,38.3,38.3s38.3-17.8,38.3-38.3v-89.3
h51v89.3c0,20.4,17.9,38.3,38.3,38.3s38.3-17.8,38.3-38.3v-89.3h25.5c15.3,0,25.5-10.2,25.5-25.5v-255h-306v255H152.7z"></path> </g> </g> </g> <g id="Layer_3"> <path class="st0 android-hend" d="M88.9,203.4c-20.4,0-38.3,17.9-38.3,38.3v178.5c0,20.4,17.8,38.3,38.3,38.3s38.3-17.9,38.3-38.3V241.6
C127.2,221.2,109.3,203.4,88.9,203.4z"></path> <path class="st0 android-hend" d="M522.4,203.4c-20.4,0-38.3,17.9-38.3,38.3v178.5c0,20.4,17.9,38.3,38.3,38.3c20.4,0,38.3-17.9,38.3-38.3V241.6
C560.7,221.2,542.8,203.4,522.4,203.4z"></path> </g> <g id="Layer_2" class="svg-scale svg-head"> <path class="st0" d="M394.9,55.5L428,22.3c5.1-5.1,5.1-12.8,0-17.9s-12.8-5.1-17.9,0L372,42.7c-17.9-12.8-40.8-17.9-66.3-17.9
s-48.5,5.1-68.9,15.3L201.1,1.9c-5.1-2.5-15.3-2.5-20.4,0c-2.6,5.1-2.6,15.3,0,20.4l33.2,33.2c-35.7,28-61.2,71.4-61.2,122.4h306
C458.7,126.9,433.2,81,394.9,55.5z"></path> <rect x="229.2" y="101.4" class="st1" width="25.5" height="25.5"></rect> <rect x="356.7" y="101.4" class="st1" width="25.5" height="25.5"></rect> </g> </svg>