<svg version="1.1" id="Layer_1" xmlns="http://www.w3.org/2000/svg" xmlns:xlink="http://www.w3.org/1999/xlink" x="0px" y="0px" viewBox="0 0 496 496" style="enable-background:new 0 0 496 496;" xml:space="preserve"><style type="text/css">.st0{fill:#4D5152;}</style><g class="svg-clock"> <polygon class="st0" points="104,88 104,120 136,120 136,104 120,104 120,88 	"></polygon> <path class="st0" d="M120,175.4V152h-16v23.4c-28.9-3.6-51.8-26.6-55.4-55.4H72v-16H48.6c1.4-11.6,6-22.6,13.5-31.9l-12.5-10
C38.1,76.4,32,93.7,32,112c0,44.1,35.9,80,80,80c18.3,0,35.6-6.1,49.9-17.5l-10-12.5C142.6,169.5,131.6,174,120,175.4z"></path> <path class="st0" d="M112,32c-18.3,0-35.6,6.1-49.9,17.5l10,12.5c9.4-7.5,20.3-12,31.9-13.5V72h16V48.6
c28.9,3.6,51.8,26.6,55.4,55.4H152v16h23.5c-1.4,11.6-6,22.6-13.5,31.9l12.5,10C186,147.6,192,130.3,192,112
C192,67.9,156.1,32,112,32z"></path> <path class="st0" d="M112,0C50.2,0,0,50.2,0,112s50.2,112,112,112c44.4,0,82.7-26,100.8-63.5c2.2-4.3,5.2-12.8,5.2-12.8
s6-19.6,6-35.8C224,50.2,173.8,0,112,0z M112,208c-52.9,0-96-43.1-96-96c0-52.9,43.1-96,96-96s96,43.1,96,96
C208,164.9,164.9,208,112,208z"></path> </g> <g class="anim-man"> <path class="st0" d="M32,432h80v16H32V432z"></path> <path class="st0" d="M0,400h16v16H0V400z"></path> <path class="st0" d="M32,400h120v16H32V400z"></path> </g> <g class="anim-man"> <path class="st0" d="M72,352h120v16H72V352z"></path> <path class="st0" d="M40,320h16v16H40V320z"></path> <path class="st0" d="M72,320h80v16H72V320z"></path> </g> <g class="anim-man"> <path class="st0" d="M32,272h80v16H32V272z"></path> <path class="st0" d="M0,240h16v16H0V240z"></path> <path class="st0" d="M32,240h128v16H32V240z"></path> </g> <g class="anim-man"> <rect y="480" class="st0" width="16" height="16"></rect> <rect x="480" y="480" class="st0" width="16" height="16"></rect> <path class="st0" d="M396.3,476.4L437.8,352c1.5-4.5,2.2-9.1,2.2-13.8c0-13.9-6.7-27.2-18-35.4l-69.1-50.3l13.4-66.8l53.3,13.3
c2.4,0.6,4.8,0.9,7.2,0.9c11.3,0,21.4-6.3,26.5-16.4l40-80c1.9-3.8,2.9-8,2.9-12.3c0-15.1-12.3-27.4-28-27.4
c-10.5,0-19.8,5.8-24.5,15.2l-32.6,65h-0.9L360,115.4V99.7c9.8-8.8,16-21.5,16-35.7V48c0-26.5-21.5-48-48-48s-48,21.5-48,48v16
c0,14.2,6.2,26.9,16,35.7v13.9l-49.7,11c-12.5,2.8-23,11.5-28.1,23.3l-1.4,3.3l-4,9.3l-34.6,80.8c-1.5,3.4-2.2,7-2.2,10.7v0.9
c0,15,12.2,27.2,27.2,27.2c11,0,20.9-6.6,25.1-16.7l33-79.3h8.7l-37.4,172L145,443.7c-5.8,5.8-9,13.5-9,21.7
c0,5.3,1.5,10.3,3.9,14.6H32v16h432v-16h-69.2C395.3,478.8,395.9,477.7,396.3,476.4z M296,48c0-17.6,14.4-32,32-32
c17.6,0,32,14.4,32,32v16c0,17.6-14.4,32-32,32c-17.6,0-32-14.4-32-32V48z M196.5,480l81.7-75.4c5.9-5.5,10-12.5,11.8-20.4
l19.1-82.8l65.4,45.8l-37,111.2c-1,2.9-1.5,6-1.5,9.1c0,4.4,1.2,8.7,3.1,12.5H196.5z M369,480h-4.4c-7,0-12.6-5.7-12.6-12.6
c0-1.4,0.2-2.7,0.6-4l40.8-122.5l-94.6-66.2l-24.5,105.9c-1.1,4.7-3.5,8.9-7.1,12.2L177,476.1c-2.7,2.5-6.2,3.9-10.4,3.9
c-8.1,0-14.6-6.6-14.6-14.6c0-3.8,1.6-7.6,4.3-10.3l91-91l42.6-196h-39.3l-37.1,89.1c-1.7,4.2-5.8,6.9-10.3,6.9
c-6.2,0-11.2-5-11.2-11.2V252c0-1.5,0.3-3,0.9-4.4l40-93.3c3-7.1,9.3-12.3,16.8-14l62.3-13.9v-17.2c5,1.8,10.4,2.8,16,2.8
c5.6,0,11-1,16-2.8v15.4l61.9,35.4H421l36.8-73.7c1.9-3.9,5.9-6.3,10.8-6.3c6.3,0,11.4,5.1,11.4,11.4c0,1.8-0.4,3.5-1.2,5.1l-40,80
c-2.8,5.6-9.3,8.6-15.5,7.1l-69.6-17.4l-18.6,93.3l77.4,56.3c7.1,5.2,11.4,13.6,11.4,22.4c0,3-0.5,5.9-1.4,8.8L381,471.4
C379.3,476.6,374.5,480,369,480z"></path> </g> </svg>