<svg version="1.1" id="Capa_1" xmlns="http://www.w3.org/2000/svg" xmlns:xlink="http://www.w3.org/1999/xlink" x="0px" y="0px" viewBox="0 0 512 512" style="enable-background:new 0 0 512 512;" xml:space="preserve"><style type="text/css">.st0{fill:#4D5152;}</style><g> <g> <path class="st0" d="M489.5,27.5h-467C10.1,27.5,0,37.6,0,50v45.8c0,4.1,3.4,7.5,7.5,7.5c4.1,0,7.5-3.4,7.5-7.5V50
c0-4.1,3.4-7.5,7.5-7.5h467c4.1,0,7.5,3.4,7.5,7.5v201.3c0,4.1,3.4,7.5,7.5,7.5s7.5-3.4,7.5-7.5V50
C512,37.6,501.9,27.5,489.5,27.5z"></path> </g> </g> <g> <g> <path class="st0" d="M504.5,273.8c-4.1,0-7.5,3.4-7.5,7.5v40.6H15v-196c0-4.1-3.4-7.5-7.5-7.5S0,121.6,0,125.8v257.6
c0,12.4,10.1,22.5,22.5,22.5h164.3l-4.3,37.3h-35.6c-4.1,0-7.5,3.4-7.5,7.5V477c0,4.1,3.4,7.5,7.5,7.5h218.1
c4.1,0,7.5-3.4,7.5-7.5v-26.3c0-4.1-3.4-7.5-7.5-7.5h-35.6l-4.3-37.3h164.3c12.4,0,22.5-10.1,22.5-22.5V281.3
C512,277.1,508.6,273.8,504.5,273.8z M357.6,458.2v11.3H154.4v-11.3H357.6z M197.7,443.2l4.3-37.3h108.1l4.3,37.3H197.7z
M497,383.4c0,4.1-3.4,7.5-7.5,7.5h-467c-4.1,0-7.5-3.4-7.5-7.5v-46.6h482V383.4z"></path> </g> </g> <g> <g> <path class="st0 svg-scale p-center" d="M392.4,199.1h-5.9c-1.7-29.9-13.5-58.2-33.7-80.5c-10.1-11.1-21.9-20.3-34.8-27.3H360
c3.1,7.4,10.4,12.6,18.9,12.6c11.3,0,20.5-9.2,20.5-20.5s-9.2-20.5-20.5-20.5c-8.8,0-16.3,5.6-19.2,13.4h-83.5v-6.4
c0-4.1-3.4-7.5-7.5-7.5h-26c-4.1,0-7.5,3.4-7.5,7.5v6.4h-83.5c-2.9-7.8-10.4-13.4-19.2-13.4c-11.3,0-20.5,9.2-20.5,20.5
s9.2,20.5,20.5,20.5c8.5,0,15.8-5.2,18.9-12.6h42.1c-12.9,7-24.7,16.2-34.8,27.3c-20.2,22.3-32,50.6-33.7,80.5h-5.5
c-4.1,0-7.5,3.4-7.5,7.5v26c0,4.1,3.4,7.5,7.5,7.5h26c4.1,0,7.5-3.4,7.5-7.5v-26c0-4.1-3.4-7.5-7.5-7.5h-5.5
c1.6-26.1,12.1-50.9,29.8-70.4c17.3-19.1,40.3-31.8,65.4-36.3v3.4c0,4.1,3.4,7.5,7.5,7.5h0.1l-28.8,48.4c-2.1,3.6-1,8.2,2.6,10.3
c3.6,2.1,8.2,1,10.3-2.6l21.3-35.8v61.6c-7.2,3-12.4,10.1-12.4,18.4c0,11,8.9,19.9,19.9,19.9s19.9-8.9,19.9-19.9
c0-8.3-5.1-15.4-12.4-18.4v-61.6l55,92.4l-25.4,42.8h-74.2L193.3,216l17.9-30c2.1-3.6,1-8.2-2.6-10.3c-3.6-2.1-8.2-1-10.3,2.6
l-20.1,33.8c-1.4,2.4-1.4,5.3,0,7.7l23.2,39c-3.9,0.3-6.9,3.5-6.9,7.5v32.9c0,4.1,3.4,7.5,7.5,7.5h107.9c4.1,0,7.5-3.4,7.5-7.5
v-32.9c0-3.9-3.1-7.2-6.9-7.5l23.2-39c1.4-2.4,1.4-5.3,0-7.7l-64.8-108.9h0.1c4.1,0,7.5-3.4,7.5-7.5v-3.4
c25.1,4.5,48.1,17.2,65.4,36.3c17.7,19.5,28.1,44.3,29.8,70.4h-5c-4.1,0-7.5,3.4-7.5,7.5v26c0,4.1,3.4,7.5,7.5,7.5h26
c4.1,0,7.5-3.4,7.5-7.5v-26C399.9,202.4,396.5,199.1,392.4,199.1z M379,77.9c3,0,5.5,2.5,5.5,5.5s-2.5,5.5-5.5,5.5
c-3,0-5.5-2.5-5.5-5.5C373.5,80.3,375.9,77.9,379,77.9z M132.6,88.8c-3,0-5.5-2.5-5.5-5.5s2.5-5.5,5.5-5.5s5.5,2.5,5.5,5.5
C138.1,86.4,135.6,88.8,132.6,88.8z M138.1,225.1h-11v-11h11V225.1z M255.8,208.4c-2.7,0-4.9-2.2-4.9-4.9c0-2.7,2.2-4.9,4.9-4.9
s4.9,2.2,4.9,4.9S258.5,208.4,255.8,208.4z M261.3,83.7C261.3,83.7,261.3,83.7,261.3,83.7v4.6h-11v-4.5c0,0,0,0,0-0.1v-6.4h11
V83.7z M209.3,291.7v-17.9h5c0,0,0.1,0,0.1,0h82.7c0,0,0.1,0,0.1,0h5v17.9H209.3z M384.9,225.1h-11v-11h11V225.1z"></path> </g> </g> </svg>