<svg version="1.1" xmlns="http://www.w3.org/2000/svg" xmlns:xlink="http://www.w3.org/1999/xlink" x="0px" y="0px" viewBox="0 0 90 90" style="enable-background:new 0 0 90 90;" xml:space="preserve"><style type="text/css">.st0{fill:#4D5152;}</style><g id="Capa_1"> <g> <path id="Apple" class="st0 svg-color" d="M75.3,78.8c-3.7,5.5-7.6,10.9-13.7,11.1c-6,0.1-7.9-3.6-14.8-3.6s-9,3.5-14.7,3.7
c-5.9,0.2-10.4-5.9-14.2-11.4C10.2,67.4,4.3,47,12.3,33.3c3.9-6.8,10.9-11.2,18.5-11.3c5.8-0.1,11.3,3.9,14.8,3.9
s10.2-4.8,17.2-4.1c2.9,0.1,11.1,1.2,16.4,8.9c-0.4,0.3-9.8,5.7-9.7,17.1C69.6,61.4,81.4,66,81.5,66
C81.4,66.3,79.6,72.5,75.3,78.8z"></path> </g> </g> <g id="Layer_2"> <path class="st0 svg-apple-pan" d="M49.6,6.8C52.9,3,58.3,0.2,62.8,0c0.6,5.3-1.5,10.6-4.7,14.4c-3.1,3.8-8.3,6.8-13.3,6.4
C44.2,15.6,46.7,10.2,49.6,6.8z"></path> </g> </svg>