<svg version="1.1" xmlns="http://www.w3.org/2000/svg" xmlns:xlink="http://www.w3.org/1999/xlink" x="0px" y="0px" viewBox="0 0 512 512" style="enable-background:new 0 0 512 512;" xml:space="preserve"><style type="text/css">.st0{fill:#4D5152;}</style><g id="Capa_1"> <g> <g> <path class="st0" d="M421.1,414.8c-4.1,0-7.5,3.4-7.5,7.5v70.5c0,2.3-1.9,4.1-4.1,4.1h-40.3V349.3c0-4.1-3.4-7.5-7.5-7.5
s-7.5,3.4-7.5,7.5V497H273l23.5-25.9c2.6-2.8,3.8-6.9,3.2-10.8c0-0.1,0-0.2,0-0.2l-22.4-132.5l6-9.1c3.3,2.4,5.9,4.7,10.7,4.7
c4.9,0,9.5-2.7,11.8-7.3l0,0l23.6-47.4l53.9,20.9c1.9,0.8,30.3,13.6,30.3,47.2v50.7c0,4.1,3.4,7.5,7.5,7.5s7.5-3.4,7.5-7.5v-50.7
c0-44.3-38-60.5-39.6-61.1c0,0-0.1,0-0.1-0.1l-89.7-34.7v-21c14.2-11.1,24.1-27.5,26.6-46.2c7.1-0.5,13.7-3.2,19.1-7.8
c7-6,11.1-14.8,11.1-24.1c0-7.7-2.8-15.1-7.7-20.8V93c0-51.3-41.7-93-93-93s-93,41.7-93,93v28.5c-5,5.7-7.7,12.7-7.7,20.1
c0,9.3,4,18.1,11.1,24.1c5.4,4.6,12,7.3,19.1,7.8c2.5,19.1,12.7,36.1,28.1,47.3v19.9l-89.6,34.7c0,0-0.1,0-0.1,0.1
c-1.6,0.7-39.6,16.8-39.6,61.1v156.2c0,10.6,8.6,19.1,19.1,19.1H174c4.1,0,7.5-3.4,7.5-7.5s-3.4-7.5-7.5-7.5h-16.1V349.3
c0-4.1-3.4-7.5-7.5-7.5s-7.5,3.4-7.5,7.5V497h-40.3c-2.3,0-4.1-1.9-4.1-4.1V336.6c0-33.8,28.5-46.5,30.2-47.2l53.8-20.9
l23.7,47.4c2.3,4.5,6.9,7.3,11.8,7.3c4.8,0,7.3-2.2,10.7-4.7l6,9.1l-22.4,132.5c0,0.1,0,0.1,0,0.2c-0.5,3.9,0.7,8,3.2,10.8
L239,497h-30c-4.1,0-7.5,3.4-7.5,7.5s3.4,7.5,7.5,7.5h200.4c10.6,0,19.1-8.6,19.1-19.1v-70.5
C428.6,418.2,425.2,414.8,421.1,414.8z M315.4,263.1l-22,44.2c-0.5-0.4-12.2-8.7-26.5-18.8c6.2-7.7-1.1,1.3,27.2-33.6
L315.4,263.1z M271,309.8l-5.7,8.6h-18.7l-5.7-8.6l15.1-10.7L271,309.8z M227.7,243.1v-14c9.1,3.7,18.9,5.4,28.4,5.4
c9.8,0,19.5-2.1,28.1-5.8v14.6L256,278L227.7,243.1z M340.9,141.5c0,4.9-2.1,9.6-5.8,12.8c-2.5,2.1-5.4,3.5-8.7,4v-33.5
C335,126.2,340.9,133.4,340.9,141.5z M184,158.3c-8.7-1.4-14.5-8.6-14.5-16.7c0-8,6.6-14.5,14.5-16.4V158.3z M184.4,109.9
c-2.4,0.3-5.1,0.9-7.2,1.6V93c0-43,35-78,78-78s78,35,78,78v18c-2.2-0.7-4.4-1.1-6.8-1.3c0-7.2,0.1-5.8-23.6-31.3
c-4.4-4.7-11.6-5.7-17-2.1c-26.1,17.1-58,25.6-87.4,23.5C191.9,99.4,186,103.6,184.4,109.9z M199,164.2v-46.8v-2.5
c32.4,1.9,66.3-7.7,93.7-25.3c10.9,11.7,16.7,17.8,18.6,20.1c0,5.9,0,47.7,0,54.4c0,30.4-24.8,55.3-55.3,55.3
C221.9,219.5,199,192.9,199,164.2z M218.6,307.3l-22-44.2l21.3-8.2l27.2,33.6C231.3,298.3,219.9,306.4,218.6,307.3z M227.2,461.7
l21.7-128.3H263l21.7,128.3L256,493.3L227.2,461.7z"></path> </g> </g> </g> <g id="Layer_2"> <polygon class="st1 employee-tai" points="248.9,333.4 227.2,461.7 256,493.3 284.7,461.7 263,333.4 	"></polygon> </g> <g id="Layer_3"> <polygon class="st1 employee-tai" points="256,299.1 240.9,309.8 246.6,318.4 265.3,318.4 271,309.8 	"></polygon> </g> </svg>