<svg version="1.1" id="Layer_1" xmlns="http://www.w3.org/2000/svg" xmlns:xlink="http://www.w3.org/1999/xlink" x="0px" y="0px" viewBox="0 0 512 512" style="enable-background:new 0 0 512 512;" xml:space="preserve"><style type="text/css">.st0{fill:#4D5152;}</style><path class="st0 svg-scalex" d="M45.9,147.8h21.3c4.1,0,7.5-3.4,7.5-7.5c0-4.1-3.4-7.5-7.5-7.5H45.9c-4.1,0-7.5,3.4-7.5,7.5
								C38.4,144.4,41.8,147.8,45.9,147.8z"></path> <path class="st0 svg-scalex" d="M221.2,132.8H91.1c-4.1,0-7.5,3.4-7.5,7.5c0,4.1,3.4,7.5,7.5,7.5h130.1c4.1,0,7.5-3.4,7.5-7.5
								C228.7,136.2,225.4,132.8,221.2,132.8z"></path> <path class="st0 svg-scalex" d="M201.5,170.8h-47.6c-4.1,0-7.5,3.4-7.5,7.5s3.4,7.5,7.5,7.5h47.6c4.1,0,7.5-3.4,7.5-7.5
								S205.6,170.8,201.5,170.8z"></path> <path class="st0 svg-scalex" d="M129,170.8h-14.8c-4.1,0-7.5,3.4-7.5,7.5s3.4,7.5,7.5,7.5H129c4.1,0,7.5-3.4,7.5-7.5S133.1,170.8,129,170.8z"></path> <path class="st0 svg-scalex" d="M90.3,170.8H45.9c-4.1,0-7.5,3.4-7.5,7.5s3.4,7.5,7.5,7.5h44.4c4.1,0,7.5-3.4,7.5-7.5S94.5,170.8,90.3,170.8z"></path> <path class="st0 svg-scale" d="M33.3,50.8c0,12.1,9.9,22,22,22s22-9.9,22-22s-9.9-22-22-22S33.3,38.6,33.3,50.8z M62.3,50.8c0,3.9-3.1,7-7,7
								c-3.9,0-7-3.1-7-7c0-3.9,3.1-7,7-7C59.1,43.8,62.3,46.9,62.3,50.8z"></path> <path class="st0 svg-scale d-1" d="M89.3,50.8c0,12.1,9.9,22,22,22s22-9.9,22-22s-9.9-22-22-22S89.3,38.6,89.3,50.8z M118.3,50.8c0,3.9-3.1,7-7,7
								c-3.9,0-7-3.1-7-7c0-3.9,3.1-7,7-7C115.1,43.8,118.3,46.9,118.3,50.8z"></path> <path class="st0 svg-scale d-2" d="M145.2,50.8c0,12.1,9.9,22,22,22s22-9.9,22-22s-9.9-22-22-22S145.2,38.6,145.2,50.8z M174.2,50.8
								c0,3.9-3.1,7-7,7c-3.9,0-7-3.1-7-7c0-3.9,3.1-7,7-7C171.1,43.8,174.2,46.9,174.2,50.8z"></path> <path class="st0 svg-scalex d-8" d="M416.5,492.7h25c4.1,0,7.5-3.4,7.5-7.5c0-4.1-3.4-7.5-7.5-7.5h-25c-4.1,0-7.5,3.4-7.5,7.5
								C409,489.4,412.3,492.7,416.5,492.7z"></path> <path class="st0 svg-scalex d-3" d="M414.3,233.9h-8.6c-4.1,0-7.5,3.4-7.5,7.5s3.4,7.5,7.5,7.5h8.6c4.1,0,7.5-3.4,7.5-7.5S418.4,233.9,414.3,233.9z
								"></path> <path class="st0 svg-scalex d-3" d="M452.3,233.9h-16.9c-4.1,0-7.5,3.4-7.5,7.5s3.4,7.5,7.5,7.5h16.9c4.1,0,7.5-3.4,7.5-7.5
								S456.4,233.9,452.3,233.9z"></path> <path class="st0" d="M511.4,33c0-18.2-14.8-33-33-33h-63.9c-4.1,0-7.5,3.4-7.5,7.5c0,4.1,3.4,7.5,7.5,7.5h63.9c9.9,0,18,8.1,18,18
								v54H15V33c0-9.9,8.1-18,18-18h334.9c4.1,0,7.5-3.4,7.5-7.5c0-4.1-3.4-7.5-7.5-7.5H33C14.8,0,0,14.8,0,33v362.6c0,18.2,14.8,33,33,33
								h145.8v26.9h-22.6c-15.1,0-27.4,12.3-27.4,27.4V499c0,6.9,5.6,12.5,12.5,12.5l347.3,0.5c12.9,0,23.4-10.5,23.4-23.4v-23.7L511.4,33z
								M33,413.5c-9.9,0-18-8.1-18-18v-28.4h330.9v46.4H33z M332.6,428.5h13.3v26.9h-13.3V428.5z M317.7,428.5v26.9H193.8v-26.9H317.7z
								M143.8,496.5v-13.7c0-6.8,5.6-12.4,12.4-12.4h189.8v18.1c0,2.8,0.5,5.5,1.4,8H143.8z M497,488.5c0,4.7-3.8,8.4-8.4,8.4H369.4
								c-4.7,0-8.4-3.8-8.4-8.4v-16.2H497V488.5z M497,457.3H360.9V326.6c0-4.1-3.4-7.5-7.5-7.5c-4.1,0-7.5,3.4-7.5,7.5v25.6H15V101.9
								h481.5v114.7c-2.5-0.9-5.1-1.4-7.9-1.4H369.4c-12.9,0-23.4,10.5-23.4,23.4v42.3c0,4.1,3.4,7.5,7.5,7.5c4.1,0,7.5-3.4,7.5-7.5v-11.1
								H497V457.3z M497,254.9H360.9v-16.2c0-4.7,3.8-8.4,8.4-8.4h119.2c4.7,0,8.5,3.8,8.5,8.4L497,254.9L497,254.9z"></path> <path class="st0 svg-scalex d-4" d="M376,306.8h27.6c4.1,0,7.5-3.4,7.5-7.5c0-4.1-3.4-7.5-7.5-7.5H376c-4.1,0-7.5,3.4-7.5,7.5
								C368.5,303.4,371.9,306.8,376,306.8z"></path> <path class="st0 svg-scalex d-4" d="M425.1,306.8h11.8c4.1,0,7.5-3.4,7.5-7.5c0-4.1-3.4-7.5-7.5-7.5h-11.8c-4.1,0-7.5,3.4-7.5,7.5
								C417.6,303.4,421,306.8,425.1,306.8z"></path> <path class="st0 svg-scalex d-4" d="M456.6,306.8h25.3c4.1,0,7.5-3.4,7.5-7.5c0-4.1-3.4-7.5-7.5-7.5h-25.3c-4.1,0-7.5,3.4-7.5,7.5
								C449.1,303.4,452.5,306.8,456.6,306.8z"></path> <path class="st0 svg-scalex d-5" d="M376,340.5h12.3c4.1,0,7.5-3.4,7.5-7.5c0-4.1-3.4-7.5-7.5-7.5H376c-4.1,0-7.5,3.4-7.5,7.5
								C368.5,337.1,371.9,340.5,376,340.5z"></path> <path class="st0 svg-scalex d-5" d="M451.7,333c0-4.1-3.4-7.5-7.5-7.5H409c-4.1,0-7.5,3.4-7.5,7.5c0,4.1,3.4,7.5,7.5,7.5h35.2
								C448.3,340.5,451.7,337.1,451.7,333z"></path> <path class="st0 svg-scalex d-5" d="M481.9,325.5H468c-4.1,0-7.5,3.4-7.5,7.5c0,4.1,3.4,7.5,7.5,7.5h13.9c4.1,0,7.5-3.4,7.5-7.5
								C489.4,328.8,486,325.5,481.9,325.5z"></path> <path class="st0 svg-scalex d-6" d="M376,371.5h24.6c4.1,0,7.5-3.4,7.5-7.5c0-4.1-3.4-7.5-7.5-7.5H376c-4.1,0-7.5,3.4-7.5,7.5
								C368.5,368.1,371.9,371.5,376,371.5z"></path> <path class="st0 svg-scalex d-6" d="M421.1,371.5h31.1c4.1,0,7.5-3.4,7.5-7.5c0-4.1-3.4-7.5-7.5-7.5h-31.1c-4.1,0-7.5,3.4-7.5,7.5
								C413.6,368.1,417,371.5,421.1,371.5z"></path> <path class="st0 svg-scalex d-6" d="M481.9,356.5h-9.6c-4.1,0-7.5,3.4-7.5,7.5c0,4.1,3.4,7.5,7.5,7.5h9.6c4.1,0,7.5-3.4,7.5-7.5
								C489.4,359.8,486,356.5,481.9,356.5z"></path> <path class="st0 svg-scalex d-7" d="M376,405.2h37.6c4.1,0,7.5-3.4,7.5-7.5c0-4.1-3.4-7.5-7.5-7.5H376c-4.1,0-7.5,3.4-7.5,7.5
								C368.5,401.8,371.9,405.2,376,405.2z"></path> <path class="st0 svg-scalex d-7" d="M445.1,390.2h-10.2c-4.1,0-7.5,3.4-7.5,7.5c0,4.1,3.4,7.5,7.5,7.5h10.2c4.1,0,7.5-3.4,7.5-7.5
								C452.6,393.5,449.2,390.2,445.1,390.2z"></path> <path class="st0 svg-scalex d-7" d="M481.9,390.2h-17.8c-4.1,0-7.5,3.4-7.5,7.5c0,4.1,3.4,7.5,7.5,7.5h17.8c4.1,0,7.5-3.4,7.5-7.5
								C489.4,393.5,486,390.2,481.9,390.2z"></path> </svg>