<svg id="Layer_1" data-name="Layer 1" xmlns="http://www.w3.org/2000/svg" viewBox="0 0 958.5 206.78"><defs><style>.cls-1{fill:#fff;}</style></defs><title>ff</title><path class="cls-1" d="M961.38,411.71c-.66.68-.5,1.64-.83,2.44a13.91,13.91,0,0,1-26.28-1.84,13.89,13.89,0,0,1,26.21-9c.37.86.28,1.86.9,2.62Zm-2.14-2.86a11.55,11.55,0,0,0-11.5-11.62,11.59,11.59,0,0,0-.06,23.17A11.53,11.53,0,0,0,959.24,408.85Z" transform="translate(-2.88 -353.33)"/><path class="cls-1" d="M2.88,400.6l.44,0c0,.76,0,1.53,0,2.29v97.6c0,.89,0,1.78,0,2.68l-.5.1Z" transform="translate(-2.88 -353.33)"/><path class="cls-1" d="M3.38,503.21c0-.9,0-1.79,0-2.68v-97.6c0-.76,0-1.53,0-2.29.63-.05,1.27-.13,1.9-.13H65a27.92,27.92,0,0,1,7.39.8A11.55,11.55,0,0,1,81,409.93a22.83,22.83,0,0,1,.84,6.05v22.61a23.32,23.32,0,0,1-.79,5.87,11.72,11.72,0,0,1-9.21,9,28.68,28.68,0,0,1-6.84.74H56.66c-.18.73.33.92.61,1.2q20.19,19.92,40.38,39.83a2.77,2.77,0,0,0,2.37.93c.63-.06,1.27,0,1.91,0h827c3,0,3,0,3,3,0,1.09,0,2.17,0,3.26,0,.63-.24.94-.9.9-.45,0-.89,0-1.34,0H92.16c-2.93,0-5.87-.09-8.81,0A3.52,3.52,0,0,1,80.4,502c-14-15.09-28-30.13-41.92-45.27-1.69-1.83-3.32-2.77-5.88-2.6-3.69.23-7.4.05-11.11.06-1.44,0-1.46,0-1.46,1.47q0,9.69,0,19.36v25.86c0,.45,0,.9,0,1.35.06.84-.34,1.09-1.14,1.08C13.72,503.25,8.55,503.23,3.38,503.21Zm37.06-87.78H21.67c-1.63,0-1.64,0-1.65,1.69v20.5c0,.32,0,.64,0,1,0,.57.28.79.82.77.32,0,.64,0,1,0H58a17.16,17.16,0,0,0,2.87-.18c3-.52,4.27-1.72,4.56-4.78a98.87,98.87,0,0,0,.06-13.77,6.6,6.6,0,0,0-.21-1.32,4.42,4.42,0,0,0-3.24-3.43,16.11,16.11,0,0,0-4.37-.44Z" transform="translate(-2.88 -353.33)"/><path class="cls-1" d="M561.38,427.52c-1.69,5-3.38,9.92-5.07,14.87q-7.2,21.19-14.41,42.38c-.81,2.37-.59,1.91-2.61,1.93-2.61,0-5.23,0-7.85,0-1.84,0-1.84,0-2.44-1.85l-13.71-42.22Q508.86,422.8,502.43,403c-.24-.72-.44-1.44-.64-2.1.46-.49.93-.35,1.35-.35h14.37c1.55,0,1.56,0,2.06,1.58q8.58,26.88,17.14,53.77c.19.59.4,1.18.64,1.92a3.8,3.8,0,0,0,.94-1.95q9-26.76,17.9-53.52c.6-1.8.61-1.8,2.48-1.8h8.24c1.71,0,1.72,0,2.27,1.6q4.1,12,8.17,24.1,5,14.85,10.08,29.71a4.09,4.09,0,0,0,.88,1.86c.23-.67.44-1.23.61-1.8q8.18-26.81,16.34-53.62c.65-2.14.34-1.84,2.41-1.85,3.77,0,7.54,0,11.31,0a3.63,3.63,0,0,1,1.67.16,3.82,3.82,0,0,1-.44,2.06Q606.86,443.85,593.48,485c-.63,1.94-.37,1.73-2.35,1.74h-7.85c-1.77,0-1.78,0-2.36-1.74q-5.62-16.79-11.23-33.57-3.68-11-7.36-21.95C562.11,428.8,562.08,428,561.38,427.52Z" transform="translate(-2.88 -353.33)"/><path class="cls-1" d="M405.5,427.71a18.13,18.13,0,0,1-.13-3.76c0-2.11,0-4.22,0-6.32,0-.89-.26-1.23-1.2-1.23q-11.88,0-23.76,0c-1,0-1.42.33-1.3,1.32a2.41,2.41,0,0,1,0,.38c.07,1.53-.46,3.23.21,4.54s2.05,2.05,3.15,3l32.75,29.19.28.25c1.69,1.48,1.29,1.46,2.86.06L434.2,441a5.57,5.57,0,0,0,.57-.52c.58-.68,1.06-.63,1.72,0,2.35,2.26,4.76,4.45,7.14,6.67l2.64,2.45-18.55,16.48,24.9,22.47c-.17.71-.65.45-1,.45-7.21,0-14.43,0-21.65,0a3.27,3.27,0,0,1-2.39-.92q-5.3-4.86-10.64-9.66c-1.89-1.7-1.33-1.68-3.24.1s-3.53,3.33-5.26,5c-3.37,3.32-7.28,5.34-12.12,5.29-1.27,0-2.55.13-3.82.13q-13.8,0-27.59,0a44.54,44.54,0,0,1-9.89-1c-5.17-1.17-8.44-4.21-9.67-9.43a28.19,28.19,0,0,1-.83-4.9,77.64,77.64,0,0,1,.17-15.47,11.26,11.26,0,0,1,3.6-6.81,40.43,40.43,0,0,1,5.78-4.4l14.65-9.43,1.65-1.08c-.23-.82-.93-1.21-1.43-1.74-2.27-2.4-4.18-5-4.86-8.32a4.89,4.89,0,0,1-.16-.74c-.15-4-.42-8,.29-12a11.3,11.3,0,0,1,8.87-9.67,29.52,29.52,0,0,1,7-1.09c7.79-.16,15.58-.14,23.37,0a31,31,0,0,1,6.06.79c6,1.31,8.86,4.41,9.93,10.44.61,3.42.4,6.87.45,10.31,0,.56-.1,1-.78,1.08-4.4.76-8.79,1.55-13.19,2.32A1.37,1.37,0,0,1,405.5,427.71Zm-.81,39.49a5.16,5.16,0,0,0-.47-.59c-7.56-6.77-15.14-13.51-22.68-20.3-.76-.68-1.27-.5-2,0-6.11,4.06-12.23,8.12-18.37,12.12a2.26,2.26,0,0,0-1.16,2.18c.06,3.83,0,7.66,0,11.48,0,1.9-.21,1.87,1.86,1.87h1.15c10.41,0,20.81-.07,31.21.05a6.63,6.63,0,0,0,5.39-2.13C401.24,470.2,403,468.74,404.69,467.2Z" transform="translate(-2.88 -353.33)"/><path class="cls-1" d="M193.89,451.17V418.6c0-.44,0-.89,0-1.34-.07-.86.22-1.35,1.18-1.24a6.59,6.59,0,0,0,.77,0q19,0,38.12,0a48.35,48.35,0,0,1,12.33,1.44c12,3.16,19.48,10.7,22.23,22.81a49.26,49.26,0,0,1-.14,22.59c-2.56,10.76-9.23,17.82-19.73,21.26a57.07,57.07,0,0,1-17.74,2.55c-11.75.06-23.5,0-35.25,0-1.75,0-1.76,0-1.76-1.81Q193.88,468,193.89,451.17Zm14.69-.09q0,10.44,0,20.88c0,1.45,0,1.47,1.47,1.47,6.77,0,13.54,0,20.31-.06a41.19,41.19,0,0,0,12.25-1.92,15.7,15.7,0,0,0,10.95-11.53,36,36,0,0,0,.23-18c-1.7-7-6.23-11.22-13.34-12.61a37,37,0,0,0-7-.63H210.61c-.32,0-.65,0-1,0-.87-.08-1.13.37-1.07,1.15,0,.38,0,.77,0,1.15Z" transform="translate(-2.88 -353.33)"/><path class="cls-1" d="M714.06,451.38v32.94a11,11,0,0,0,0,1.15c.08.89-.25,1.26-1.19,1.25-4,0-8-.05-12.06,0-1.07,0-1.28-.41-1.27-1.36,0-4,0-8,0-12.06V458.75c0-1.81,0-1.82-1.91-1.82H656.08c-1.76,0-1.78,0-1.78,1.75v25.67c0,.44,0,.89,0,1.34.05.73-.28,1-1,1H640.65c-.72,0-1.07-.28-1-1,0-.44,0-.89,0-1.34V417.7c0-1.66,0-1.67,1.69-1.67h11.3c1.68,0,1.7,0,1.7,1.66q0,11.4,0,22.79c0,.45,0,.9,0,1.34,0,.71.2,1.1,1,1,.38,0,.76,0,1.14,0h41c2.46,0,2.14.16,2.15-2.16q0-11.11,0-22.22a11,11,0,0,0,0-1.15c-.11-1,.25-1.35,1.28-1.33,3.26.06,6.51,0,9.77,0,.77,0,1.53,0,2.3,0s1.22.21,1.16,1.07c0,.44,0,.89,0,1.34Z" transform="translate(-2.88 -353.33)"/><path class="cls-1" d="M864.5,451.25q0-16.58,0-33.14c0-2.23-.2-2.09,2-2.09H926.7c1.66,0,1.67,0,1.68,1.68q0,4.6,0,9.2c0,1.63,0,1.64-1.71,1.64h-46c-1.48,0-1.5,0-1.51,1.45,0,2.36,0,4.72,0,7.09,0,1.78,0,3.57,0,5.36,0,1.43,0,1.46,1.51,1.46h25.48c1.59,0,1.61,0,1.61,1.52,0,3.06,0,6.13,0,9.19,0,1.45,0,1.48-1.47,1.48H880.64c-1.43,0-1.46,0-1.46,1.49,0,4.66,0,9.32,0,14,0,1.84,0,1.85,1.9,1.85h45.59c2.83,0,2.45-.34,2.47,2.41,0,3.13,0,6.26,0,9.39,0,1.43,0,1.43-1.51,1.47H866.7c-2.44,0-2.2.16-2.2-2.12q0-15.52,0-31Z" transform="translate(-2.88 -353.33)"/><path class="cls-1" d="M108.37,451.25V418.11c0-2.28-.15-2.09,2-2.09h60c1.87,0,1.87,0,1.88,1.87,0,3.07,0,6.13,0,9.2,0,1.42,0,1.45-1.5,1.45H124.38c-1.29,0-1.31,0-1.32,1.45,0,2.61,0,5.23,0,7.85,0,1.6,0,3.19,0,4.79,0,1,.34,1.3,1.33,1.29,3.83-.05,7.66,0,11.49,0h14.37c1.4,0,1.42,0,1.42,1.52,0,3.07,0,6.13,0,9.2,0,1.44,0,1.47-1.48,1.47H124.5c-1.41,0-1.44,0-1.44,1.5q0,7.1,0,14.18c0,1.62,0,1.63,1.7,1.64h46c2.54,0,2.25-.27,2.26,2.24q0,4.68,0,9.38c0,1.63,0,1.63-1.71,1.65H110c-1.59,0-1.61,0-1.62-1.56,0-1.85,0-3.7,0-5.55Z" transform="translate(-2.88 -353.33)"/><path class="cls-1" d="M810,416h33.92c1.86,0,1.87,0,1.87,1.87q0,4.59,0,9.2c0,1.55,0,1.57-1.57,1.57H819.31c-.45,0-.89,0-1.34,0-.74,0-1,.32-1,1,0,.51,0,1,0,1.53v52.88a12,12,0,0,0,0,1.34c.12,1-.38,1.28-1.34,1.27-3.9,0-7.79,0-11.69,0-1.42,0-1.42,0-1.45-1.54,0-.38,0-.77,0-1.15V430.94c0-2.56.15-2.27-2.25-2.27H775.91c-.45,0-.89,0-1.34,0s-.78-.31-.78-.84c0-3.64,0-7.28,0-10.92,0-.66.34-.91,1-.88.45,0,.9,0,1.34,0Z" transform="translate(-2.88 -353.33)"/><path class="cls-1" d="M176.25,546.07c2.46-8.74,4.8-17,7.13-25.31.14-.49.3-1,.4-1.47a1.06,1.06,0,0,1,1.2-.95q5.66,0,11.3,0c.71,0,1.11.2,1.06,1a5.42,5.42,0,0,0,0,.57v37.93c0,1.52,0,1.53-1.61,1.54s-3.32,0-5,0-1.63,0-1.63-1.72V528.36a3.21,3.21,0,0,0-.78,1.66l-7.5,27.69c-.45,1.64-.46,1.64-2.16,1.65H173.5c-1.62,0-1.63,0-2.05-1.53q-3.63-13.49-7.28-27a5.85,5.85,0,0,0-1-2.62v28.92c0,.45,0,.89,0,1.34s-.13.86-.73.86H155.7c-.45,0-.72-.19-.72-.67s0-.89,0-1.34v-37a6.59,6.59,0,0,0,0-.77c-.13-1,.38-1.28,1.33-1.27,3.52,0,7,.07,10.54,0,1.16,0,1.51.46,1.79,1.47,1.82,6.57,3.7,13.13,5.59,19.68A60.1,60.1,0,0,0,176.25,546.07Z" transform="translate(-2.88 -353.33)"/><path class="cls-1" d="M740.62,451.17V418.43a8.81,8.81,0,0,0,0-1.15c-.12-1,.4-1.28,1.35-1.27q5.92,0,11.87,0c.87,0,1.34.23,1.24,1.18,0,.38,0,.77,0,1.15V484.4c0,2.59.25,2.3-2.4,2.31-3.38,0-6.77,0-10.15,0-1.89,0-1.9,0-1.9-1.84v-33.7Z" transform="translate(-2.88 -353.33)"/><path class="cls-1" d="M492.45,538.89q0-9.39,0-18.78c0-1.75,0-1.76,1.79-1.76h29.12c1.64,0,1.64,0,1.66,1.7,0,1.27,0,2.55,0,3.83s0,1.44-1.52,1.44c-6.26,0-12.52,0-18.78,0-1.05,0-2.36-.47-3.11.3s-.2,2-.23,3c0,1.53,0,3.07,0,4.6,0,.91.27,1.22,1.2,1.2,3.32,0,6.64,0,10,0h9.39c1.42,0,1.44,0,1.45,1.51s0,2.81,0,4.21c0,.93-.29,1.21-1.2,1.2-3.19,0-6.39,0-9.58,0H503c-1.63,0-1.64,0-1.65,1.71,0,2.62,0,5.23,0,7.85,0,1.55,0,1.57,1.56,1.57H524c1.87,0,1.87,0,1.88,1.87,0,1.34,0,2.68,0,4,0,.71-.21,1.1-1,1-.38,0-.76,0-1.15,0H493.89c-1.41,0-1.44,0-1.44-1.51Q492.44,548.38,492.45,538.89Z" transform="translate(-2.88 -353.33)"/><path class="cls-1" d="M305.22,533.46c5.83-5.75,14.31-6.14,19,0l1.4-1.27a12.4,12.4,0,0,1,12.14-2.7,8.36,8.36,0,0,1,6.28,7.4,57.54,57.54,0,0,1,.23,7.07q0,6.9,0,13.8c0,1.53,0,1.54-1.6,1.55-1.86,0-3.71-.05-5.56,0-1,0-1.28-.37-1.27-1.33,0-5,0-10.09,0-15.13a28.06,28.06,0,0,0-.29-4.2c-.35-2.52-1.74-3.69-4.29-3.66a5.75,5.75,0,0,0-5.66,4.55,17.89,17.89,0,0,0-.47,4.56c0,4.53,0,9.07,0,13.6,0,1.56,0,1.57-1.57,1.58-1.79,0-3.58,0-5.36,0-1.46,0-1.48,0-1.48-1.45q0-7.56,0-15.13a28,28,0,0,0-.28-4.2c-.33-2.37-1.58-3.46-4-3.51a5.78,5.78,0,0,0-6.17,4.85,22.28,22.28,0,0,0-.36,5c0,4.28,0,8.55,0,12.83,0,1.64,0,1.65-1.7,1.66s-3.45,0-5.18,0c-1.52,0-1.54,0-1.54-1.59q0-12,0-24c0-1,0-2,0-3.07,0-.7.19-1,1-1,2,0,4,0,5.94,0,.66,0,.9.29.88.93C305.2,531.44,305.22,532.26,305.22,533.46Z" transform="translate(-2.88 -353.33)"/><path class="cls-1" d="M407.52,533v-8.78c0-1.6,0-3.2,0-4.79,0-.82.29-1.13,1.12-1.12,2.1,0,4.21,0,6.31,0,.74,0,1.05.31,1,1,0,.38,0,.77,0,1.15v37c0,1.87,0,1.87-1.87,1.88-1.53,0-3.06,0-4.59,0s-1.4,0-1.43-1.35c0-.76,0-1.52,0-2.23-.38-.24-.54,0-.71.15-6.51,7.24-18.87,4.86-21.8-5.89a21.85,21.85,0,0,1,.16-11.92c2.68-9.29,14.12-11.71,20.43-6.23C406.47,532.17,406.82,532.44,407.52,533Zm-14.08,11.17a15.16,15.16,0,0,0,.72,5.09,6.44,6.44,0,0,0,4.12,4.21,6.61,6.61,0,0,0,8.49-4.16,15,15,0,0,0,.08-9.58,6.28,6.28,0,0,0-6.05-4.69,6.56,6.56,0,0,0-6.65,4.44A12.09,12.09,0,0,0,393.44,544.19Z" transform="translate(-2.88 -353.33)"/><path class="cls-1" d="M553.85,532.81a4.76,4.76,0,0,0,.19-2c0-3.7,0-7.41,0-11.11,0-1,.25-1.37,1.29-1.34,2,.06,4.08,0,6.12,0,.72,0,1.09.23,1,1,0,.38,0,.76,0,1.15v36.76c0,.45,0,.9,0,1.35s-.29.77-.83.76q-3.06,0-6.13,0c-.71,0-.82-.4-.81-1,0-.89,0-1.78,0-2.64-.56-.31-.73.17-1,.41-6.24,6.54-17.44,4.85-21.1-4.6a19.9,19.9,0,0,1,0-14.43,12.79,12.79,0,0,1,19.7-5.53C552.81,531.94,553.24,532.31,553.85,532.81Zm.22,11.73a17.28,17.28,0,0,0-.43-4.17c-.88-3.32-3.16-5.25-6.35-5.31a6.53,6.53,0,0,0-6.75,5.08,16.55,16.55,0,0,0,0,8.5,6.55,6.55,0,0,0,6.27,5.22,6.77,6.77,0,0,0,6.63-4.8A12.57,12.57,0,0,0,554.07,544.54Z" transform="translate(-2.88 -353.33)"/><path class="cls-1" d="M670.07,559.36c-2.8,0-5.15,0-7.5,0a1.14,1.14,0,0,1-1.25-.92c-.19-.66-.44-1.3-.66-1.93-.71,0-1,.43-1.39.72a14.32,14.32,0,0,1-12.35,2.36,8.46,8.46,0,0,1-6.32-11,8,8,0,0,1,4.93-5,42.55,42.55,0,0,1,7.78-1.93c1.75-.35,3.49-.74,5.22-1.19,1.39-.36,1.42-.47,1.32-1.84a3.15,3.15,0,0,0-2.82-3.32,12.12,12.12,0,0,0-4.57-.1,4.34,4.34,0,0,0-3.34,2.58c-.27.58-.56,1-1.29.83-2.19-.39-4.38-.74-6.75-1.14,1.16-4,3.46-6.6,7.34-7.68a27.39,27.39,0,0,1,10.44-.56,13.39,13.39,0,0,1,5.62,1.71,6.64,6.64,0,0,1,3.4,5,26.94,26.94,0,0,1,.31,3.81c0,2.87,0,5.74-.05,8.61C668.13,552,668,555.67,670.07,559.36Zm-10.31-14a4.72,4.72,0,0,0-.79,0q-3.54.78-7.06,1.6a5.51,5.51,0,0,0-1.25.46,3.35,3.35,0,0,0-1,5.55,4.38,4.38,0,0,0,2.08,1.28,7.41,7.41,0,0,0,7.08-2.28,3.93,3.93,0,0,0,.9-1.87A15.93,15.93,0,0,0,659.76,545.38Z" transform="translate(-2.88 -353.33)"/><path class="cls-1" d="M728.66,560a19.2,19.2,0,0,1-7.8-1.5,13.38,13.38,0,0,1-8.47-10.33,16.64,16.64,0,0,1,.1-7.78c1.81-6.7,7.13-10.94,14.42-11.39a17.78,17.78,0,0,1,11,2.54,15,15,0,0,1,6.68,15.75A15.87,15.87,0,0,1,728.66,560Zm7.52-15.67c-.06-.69-.07-1.46-.18-2.22a7.52,7.52,0,0,0-7-6.69,7.43,7.43,0,0,0-8,5.94,13.14,13.14,0,0,0-.17,5.51c.73,4.37,3.88,6.9,8.15,6.68,3.9-.19,6.73-3.15,7.09-7.43C736.12,545.59,736.14,545,736.18,544.37Z" transform="translate(-2.88 -353.33)"/><path class="cls-1" d="M439.93,537.45c1.21-3.92,3.42-6.58,7.19-7.62a27.05,27.05,0,0,1,13.64,0,9.46,9.46,0,0,1,3.4,1.7,6.1,6.1,0,0,1,2.45,3.76,17.91,17.91,0,0,1,.42,3.8c0,2.29,0,4.59,0,6.89,0,4.44-.5,8.95,1.84,13.41h-7.69c-.57,0-.77-.38-.92-.81-.24-.66-.45-1.33-.68-2-.71-.16-1.05.41-1.49.73a14.31,14.31,0,0,1-12.19,2.33c-5.12-1.22-7.94-6-6.49-10.79a8.06,8.06,0,0,1,5.13-5.3,45.13,45.13,0,0,1,7.6-1.88c1.81-.37,3.62-.76,5.4-1.23,1.31-.34,1.38-.56,1.21-1.93a3.21,3.21,0,0,0-3-3.24,12.4,12.4,0,0,0-4.38-.07,4.28,4.28,0,0,0-3.38,2.54c-.3.65-.64,1-1.44.87C444.46,538.2,442.33,537.86,439.93,537.45Zm18.78,7.76-8.18,1.88a5.14,5.14,0,0,0-1.07.41,3.35,3.35,0,0,0-1.06,5.43,4.4,4.4,0,0,0,2.23,1.39,7.36,7.36,0,0,0,7.06-2.33,3.78,3.78,0,0,0,.83-1.69A16.19,16.19,0,0,0,458.71,545.21Z" transform="translate(-2.88 -353.33)"/><path class="cls-1" d="M379.4,551.26a12.58,12.58,0,0,1-9.17,8.27,20.07,20.07,0,0,1-9.86-.08,12.6,12.6,0,0,1-9.44-9.13A19.58,19.58,0,0,1,351,538.8,13.78,13.78,0,0,1,363.45,529a18.82,18.82,0,0,1,5.89.51c5.71,1.47,9.36,5.76,10.23,12.05.18,1.32.22,2.67.35,4,.09.91-.26,1.28-1.19,1.24-1.21-.05-2.42,0-3.64,0-4.91,0-9.83,0-14.75,0-1.54,0-1.63.13-1.39,1.65a6.65,6.65,0,0,0,6.48,5.71A5,5,0,0,0,370.6,551a1.23,1.23,0,0,1,1.57-.92C374.49,550.49,376.82,550.85,379.4,551.26ZM365.05,542c1.85,0,3.69,0,5.53,0,.6,0,.94-.15.92-.86A6.28,6.28,0,0,0,359,541c0,.74.19,1,.95,1C361.62,542,363.33,542,365.05,542Z" transform="translate(-2.88 -353.33)"/><path class="cls-1" d="M759.33,533.41c.82-.2,1.14-.79,1.61-1.18,4.37-3.59,9.19-4.16,14.35-2a7.71,7.71,0,0,1,4.79,6.45,25.63,25.63,0,0,1,.3,3.81c0,5.75,0,11.5,0,17.24,0,1.65,0,1.66-1.69,1.67-1.86,0-3.71-.05-5.56,0-.94,0-1.19-.32-1.18-1.22,0-4.4,0-8.81,0-13.22a48.62,48.62,0,0,0-.23-5c-.4-3.72-2.78-5.49-6.5-4.8a6.21,6.21,0,0,0-5.12,5.25,27,27,0,0,0-.34,4.58q0,6.42,0,12.83c0,1.5,0,1.52-1.42,1.53-1.92,0-3.84,0-5.75,0-1,0-1.28-.38-1.27-1.35,0-6,0-12,0-18,0-3,0-6,0-9,0-1,.24-1.37,1.27-1.33,1.85.07,3.71,0,5.56,0,.74,0,1,.27,1,1A10.12,10.12,0,0,0,759.33,533.41Z" transform="translate(-2.88 -353.33)"/><path class="cls-1" d="M591.45,555.59c-.52.08-.74.6-1.1.92a13.29,13.29,0,0,1-13.55,2.8,8.21,8.21,0,0,1-5.9-7.09,25.75,25.75,0,0,1-.31-3.62c0-5.8,0-11.61,0-17.42,0-1.44,0-1.46,1.48-1.47,1.92,0,3.83,0,5.75,0,.92,0,1.21.29,1.2,1.2,0,3.19,0,6.38,0,9.57,0,2.81.14,5.62.18,8.42.07,4.3,3.29,6,7.35,4.82a5.67,5.67,0,0,0,4.33-5.25c.46-4.4.2-8.8.28-13.2,0-1.46.06-2.93,0-4.4,0-1,.38-1.18,1.25-1.16,2,0,4,.06,5.93,0,1,0,1.29.35,1.28,1.33,0,5.1,0,10.21,0,15.31,0,3.83,0,7.66,0,11.49,0,1.5,0,1.52-1.42,1.53q-2.49,0-5,0c-1.42,0-1.41,0-1.45-1.51,0-.7-.06-1.4-.1-2.1C591.61,555.7,591.54,555.67,591.45,555.59Z" transform="translate(-2.88 -353.33)"/><path class="cls-1" d="M226.71,555.45a13.44,13.44,0,0,1-7.73,4.37,13.24,13.24,0,0,1-6.61-.4c-4.09-1.32-6-4.29-6.33-8.44-.13-2-.09-4-.09-5.93q0-7,0-14c0-1.33,0-1.35,1.38-1.36,1.91,0,3.83,0,5.74,0,1,0,1.33.29,1.32,1.31,0,4.14,0,8.29,0,12.44,0,1.92,0,3.84.14,5.75.24,3.42,2.14,5,5.56,4.83a6.07,6.07,0,0,0,6.08-5.49,27.52,27.52,0,0,0,.21-3.63c0-4.54,0-9.07,0-13.6,0-1.57,0-1.58,1.56-1.59h5.36c1.47,0,1.49,0,1.49,1.44q0,6.71,0,13.41t0,13.41c0,1.35,0,1.37-1.36,1.38-1.65,0-3.31,0-5,0-1.4,0-1.4,0-1.43-1.51,0-.71,0-1.41,0-2.11C227,555.69,226.93,555.65,226.71,555.45Z" transform="translate(-2.88 -353.33)"/><path class="cls-1" d="M636,538.45l-7.25,1.25c-.61.1-1.05.07-1.27-.73-.77-2.8-3.22-3.9-5.93-3.77a6,6,0,0,0-5.91,4.57,16.19,16.19,0,0,0,.21,9.62,6.59,6.59,0,0,0,9.31,3.55,5.67,5.67,0,0,0,2.6-3.42c.51-1.53.53-1.53,2.11-1.27l6.54,1.1c-1.25,4.93-3.9,8.4-8.73,9.89a19.85,19.85,0,0,1-10.78.25,13.55,13.55,0,0,1-10.32-12.17,22,22,0,0,1,.26-7.05c1.24-5.67,4.65-9.26,10.24-10.7a19.87,19.87,0,0,1,10.6.2C632,531,634.57,534.08,636,538.45Z" transform="translate(-2.88 -353.33)"/><path class="cls-1" d="M269.47,519.19c0,3.22,0,6,0,8.82,0,1.67,0,1.68,1.67,1.69,1,0,2,0,3.06,0,.75,0,1.06.29,1,1,0,.12,0,.25,0,.38-.08,1.52.61,3.4-.26,4.47s-2.76.32-4.2.33c-1,0-1.3.39-1.29,1.35.05,4.53.09,9.07.05,13.6,0,2.54,1.56,2.86,3.21,2.61.19,0,.37-.09.56-.13,1.93-.44,1.92-.44,2.12,1.43.11,1.08.23,2.16.38,3.23a1,1,0,0,1-.85,1.25,16.56,16.56,0,0,1-8.69.44c-3.26-.8-4.79-2.55-5-5.89-.17-2.23-.19-4.46-.21-6.7,0-3.26,0-6.51,0-9.77,0-1.35,0-1.35-1.4-1.39-2.47-.07-2.47-.07-2.47-2.61,0-.83,0-1.66,0-2.49s.24-1.14,1.09-1.15,2,.42,2.56-.25.2-1.84.23-2.79c.1-3.49-.54-2.49,2.48-4.19C265.33,521.39,267.24,520.4,269.47,519.19Z" transform="translate(-2.88 -353.33)"/><path class="cls-1" d="M691.06,552.86c.21,1.83.38,3.47.59,5.11a1,1,0,0,1-.83,1.26,16.59,16.59,0,0,1-8.5.49c-3.47-.81-5-2.56-5.27-6.11-.13-1.59-.12-3.19-.13-4.78,0-3.83,0-7.66,0-11.49,0-1.37,0-1.37-1.38-1.41-2.5-.08-2.5-.08-2.51-2.55,0-.13,0-.26,0-.38.06-1-.39-2.22.19-3s1.79-.24,2.72-.29c.76,0,1-.37,1-1.06,0-1.28,0-2.56,0-3.83a1.48,1.48,0,0,1,.84-1.54c2.32-1.21,4.61-2.48,6.91-3.72a2.88,2.88,0,0,1,.72-.1v3.25c0,1.6,0,3.2,0,4.79,0,2.5-.2,2.17,2.1,2.19.83,0,1.66,0,2.49,0s1.19.17,1.16,1.06c0,1.4,0,2.8,0,4.21,0,.79-.36,1-1,1-1.22,0-2.43,0-3.64,0-.69,0-1.07.17-1.07,1,0,4.85,0,9.7.08,14.55,0,1.42.78,2.07,2.19,2.09a8.91,8.91,0,0,0,1.7-.23C689.83,553.18,690.31,553,691.06,552.86Z" transform="translate(-2.88 -353.33)"/><path class="cls-1" d="M243.56,538.73V520.18c0-2-.08-1.84,1.91-1.83,1.72,0,3.44,0,5.16,0,1.32,0,1.35,0,1.35,1.42,0,4,0,8,0,12.05q0,12.61,0,25.24c0,2.59.38,2.27-2.37,2.3-1.53,0-3.06,0-4.59,0s-1.45,0-1.45-1.49Q243.56,548.29,243.56,538.73Z" transform="translate(-2.88 -353.33)"/><path class="cls-1" d="M281.06,544.31c0-4.4,0-8.81,0-13.21,0-1.36,0-1.38,1.35-1.39,1.91,0,3.83,0,5.74,0,.94,0,1.35.2,1.35,1.27q-.06,13.59,0,27.19c0,.92-.29,1.24-1.2,1.22-1.92,0-3.83,0-5.75,0-1.46,0-1.48,0-1.48-1.44C281.05,553.38,281.06,548.84,281.06,544.31Z" transform="translate(-2.88 -353.33)"/><path class="cls-1" d="M432.59,544.46c0,4.46,0,8.93,0,13.4,0,1.46,0,1.48-1.44,1.49-1.66,0-3.32,0-5,0-2.17,0-2,.08-2-1.94v-15.5c0-3.57,0-7.15,0-10.72,0-1.46,0-1.48,1.46-1.49,1.79,0,3.58,0,5.36,0,1.56,0,1.58,0,1.59,1.54C432.6,535.65,432.59,540.06,432.59,544.46Z" transform="translate(-2.88 -353.33)"/><path class="cls-1" d="M696.93,544.38c0-4.41,0-8.81,0-13.22,0-1.42,0-1.44,1.49-1.45,2,0,4,0,5.93,0,.73,0,1,.26,1,1s0,1.65,0,2.48v23.94c0,.44,0,.89,0,1.34,0,.66-.3.89-.92.89-2.17,0-4.34,0-6.51,0-.74,0-1-.27-1-1,0-1.46,0-2.93,0-4.4Z" transform="translate(-2.88 -353.33)"/><path class="cls-1" d="M428.32,525.64h-3.25c-.63,0-.92-.25-.91-.9,0-1.79,0-3.57,0-5.35,0-.71.24-1.06,1-1,2.16,0,4.33,0,6.49,0,.61,0,1,.17,1,.84,0,1.91,0,3.83,0,5.74,0,.61-.34.73-.85.72Z" transform="translate(-2.88 -353.33)"/><path class="cls-1" d="M285.17,525.64c-1,0-2,0-3.06,0-.86.05-1.09-.32-1.07-1.12,0-1.72,0-3.44,0-5.15,0-.7.21-1.06,1-1,2.17,0,4.33,0,6.49,0,.76,0,1,.35,1,1,0,1.78,0,3.57,0,5.35,0,.66-.27.91-.9.9Z" transform="translate(-2.88 -353.33)"/><path class="cls-1" d="M700.76,525.62c-1.07-.17-2.73.61-3.6-.32s-.21-2.43-.22-3.69c0-1-.44-2.27.2-3s2-.26,3.09-.3c1.4-.06,2.8,0,4.2,0,.63,0,.93.24.93.89,0,1.85,0,3.69,0,5.53,0,.67-.34.88-.94.87Z" transform="translate(-2.88 -353.33)"/><path class="cls-1" d="M949.42,409.92c2,1.84,3.19,4.08,4.54,6.28-2.57.57-2.58.57-3.66-1.35a26.17,26.17,0,0,0-2.15-3.39,3.07,3.07,0,0,0-2.25-1.28c-1.72-.15-1.8-.1-1.81,1.68,0,1.21,0,2.43,0,3.64,0,.94-.51,1-1.22,1s-1.27,0-1.27-1c0-4.34,0-8.68,0-13,0-.77.39-1,1.07-1,2.11,0,4.22-.07,6.32.14,2.38.24,3.75,1.37,4.06,3.34s-.64,3.51-2.77,4.49Zm-2.73-6.33v0c-.51,0-1,0-1.53,0-.84-.08-1.11.28-1.08,1.09.13,3.88-.76,3.38,3.41,3.34a5.91,5.91,0,0,0,1.32-.18,2.08,2.08,0,0,0,1.76-2,2.12,2.12,0,0,0-1.79-2.14A16.07,16.07,0,0,0,946.69,403.59Z" transform="translate(-2.88 -353.33)"/><path class="cls-1" d="M191.69,366.87c0,8.59-5.22,13.14-11.58,13.14-6.59,0-11.21-5.11-11.21-12.65,0-7.92,4.92-13.1,11.58-13.1C187.29,354.26,191.69,359.47,191.69,366.87Zm-19.35.41c0,5.33,2.88,10.1,7.95,10.1s8-4.7,8-10.36c0-5-2.59-10.14-8-10.14S172.34,361.81,172.34,367.28Z" transform="translate(-2.88 -353.33)"/><path class="cls-1" d="M195.76,366.54c0-1.85,0-3.37-.15-4.85h2.89l.18,3h.07a6.6,6.6,0,0,1,5.93-3.36c2.47,0,6.32,1.48,6.32,7.62V379.6h-3.25V369.28c0-2.89-1.08-5.29-4.15-5.29a4.8,4.8,0,0,0-4.59,4.85V379.6h-3.25Z" transform="translate(-2.88 -353.33)"/><path class="cls-1" d="M218.11,371.24c.07,4.4,2.88,6.22,6.14,6.22a11.74,11.74,0,0,0,5-.93l.55,2.33a14.5,14.5,0,0,1-6,1.11c-5.51,0-8.8-3.62-8.8-9s3.18-9.65,8.4-9.65c5.84,0,7.4,5.14,7.4,8.43a13.83,13.83,0,0,1-.11,1.52Zm9.54-2.33c0-2.07-.85-5.29-4.51-5.29-3.3,0-4.74,3-5,5.29Z" transform="translate(-2.88 -353.33)"/><path class="cls-1" d="M242.34,375.68a11.37,11.37,0,0,0,5.77,1.63c3.3,0,5.22-1.74,5.22-4.26,0-2.33-1.33-3.66-4.7-4.95-4.07-1.45-6.59-3.56-6.59-7.07,0-3.89,3.22-6.77,8.07-6.77a11.32,11.32,0,0,1,5.51,1.22l-.88,2.62a10,10,0,0,0-4.74-1.18c-3.4,0-4.7,2-4.7,3.74,0,2.33,1.52,3.48,5,4.81,4.22,1.63,6.36,3.66,6.36,7.32,0,3.85-2.85,7.18-8.73,7.18a12.83,12.83,0,0,1-6.36-1.59Z" transform="translate(-2.88 -353.33)"/><path class="cls-1" d="M264.73,356.55v5.14h4.66v2.48h-4.66v9.66c0,2.22.62,3.48,2.44,3.48a7.21,7.21,0,0,0,1.88-.22l.15,2.44a8,8,0,0,1-2.88.44,4.52,4.52,0,0,1-3.52-1.37c-.92-1-1.26-2.55-1.26-4.66v-9.77h-2.77v-2.48h2.77V357.4Z" transform="translate(-2.88 -353.33)"/><path class="cls-1" d="M274.64,371.24c.08,4.4,2.89,6.22,6.14,6.22a11.74,11.74,0,0,0,5-.93l.56,2.33a14.5,14.5,0,0,1-6,1.11c-5.51,0-8.81-3.62-8.81-9s3.19-9.65,8.4-9.65c5.85,0,7.4,5.14,7.4,8.43a11.7,11.7,0,0,1-.11,1.52Zm9.55-2.33c0-2.07-.85-5.29-4.52-5.29-3.29,0-4.73,3-5,5.29Z" transform="translate(-2.88 -353.33)"/><path class="cls-1" d="M291.36,367.54c0-2.29-.07-4.14-.14-5.85h2.92l.15,3.08h.07a7,7,0,0,1,6.37-3.48c4.33,0,7.58,3.66,7.58,9.1,0,6.44-3.92,9.62-8.14,9.62a6.28,6.28,0,0,1-5.51-2.81h-.08v9.73h-3.22Zm3.22,4.77a7.84,7.84,0,0,0,.15,1.34,5,5,0,0,0,4.89,3.81c3.44,0,5.44-2.81,5.44-6.92,0-3.59-1.89-6.66-5.33-6.66a5.19,5.19,0,0,0-4.92,4,5,5,0,0,0-.23,1.33Z" transform="translate(-2.88 -353.33)"/><path class="cls-1" d="M331.43,354.66V379.6h-3.21V354.66Z" transform="translate(-2.88 -353.33)"/><path class="cls-1" d="M337.32,366.54c0-1.85,0-3.37-.15-4.85h2.89l.18,3h.07a6.59,6.59,0,0,1,5.92-3.36c2.48,0,6.33,1.48,6.33,7.62V379.6h-3.25V369.28c0-2.89-1.08-5.29-4.15-5.29a4.8,4.8,0,0,0-4.59,4.85V379.6h-3.25Z" transform="translate(-2.88 -353.33)"/><path class="cls-1" d="M383.23,378.79a16,16,0,0,1-6.58,1.18c-7,0-12.32-4.44-12.32-12.61,0-7.81,5.29-13.1,13-13.1a13.27,13.27,0,0,1,5.92,1.11L382.5,358a11.84,11.84,0,0,0-5-1c-5.84,0-9.73,3.74-9.73,10.28,0,6.11,3.52,10,9.58,10a12.89,12.89,0,0,0,5.26-1Z" transform="translate(-2.88 -353.33)"/><path class="cls-1" d="M387.16,353.33h3.25v11.18h.08a6,6,0,0,1,2.33-2.3,6.75,6.75,0,0,1,3.33-.92c2.4,0,6.25,1.48,6.25,7.66V379.6h-3.26V369.32c0-2.89-1.07-5.33-4.14-5.33a4.69,4.69,0,0,0-4.37,3.25,4.08,4.08,0,0,0-.22,1.56v10.8h-3.25Z" transform="translate(-2.88 -353.33)"/><path class="cls-1" d="M417.61,379.6l-.26-2.25h-.11a6.7,6.7,0,0,1-5.48,2.66,5.1,5.1,0,0,1-5.48-5.14c0-4.33,3.85-6.7,10.77-6.66v-.37c0-1.48-.41-4.15-4.07-4.15a9,9,0,0,0-4.66,1.33l-.74-2.14a11.14,11.14,0,0,1,5.88-1.59c5.48,0,6.81,3.73,6.81,7.32v6.7a24.32,24.32,0,0,0,.3,4.29Zm-.48-9.14c-3.56-.07-7.59.56-7.59,4a2.88,2.88,0,0,0,3.07,3.11,4.46,4.46,0,0,0,4.33-3,3.41,3.41,0,0,0,.19-1Z" transform="translate(-2.88 -353.33)"/><path class="cls-1" d="M425.52,366.54c0-1.85,0-3.37-.14-4.85h2.88l.19,3h.07a6.59,6.59,0,0,1,5.92-3.36c2.48,0,6.33,1.48,6.33,7.62V379.6h-3.26V369.28c0-2.89-1.07-5.29-4.14-5.29a4.77,4.77,0,0,0-4.59,4.85V379.6h-3.26Z" transform="translate(-2.88 -353.33)"/><path class="cls-1" d="M461.49,361.69c-.08,1.3-.15,2.74-.15,4.93V377c0,4.11-.81,6.63-2.55,8.18a9.5,9.5,0,0,1-6.52,2.15,11.56,11.56,0,0,1-5.95-1.48l.81-2.48a10.14,10.14,0,0,0,5.26,1.4c3.33,0,5.77-1.74,5.77-6.25v-2h-.08a6.37,6.37,0,0,1-5.69,3c-4.44,0-7.63-3.77-7.63-8.73,0-6.07,4-9.51,8.07-9.51a6,6,0,0,1,5.59,3.11h.07l.15-2.71Zm-3.37,7.07a4.93,4.93,0,0,0-.18-1.48,4.7,4.7,0,0,0-4.55-3.44c-3.11,0-5.33,2.63-5.33,6.77,0,3.52,1.77,6.44,5.29,6.44a4.75,4.75,0,0,0,4.51-3.33,5.48,5.48,0,0,0,.26-1.74Z" transform="translate(-2.88 -353.33)"/><path class="cls-1" d="M470.15,356.66a2,2,0,0,1-4,0,2,2,0,0,1,2-2A1.93,1.93,0,0,1,470.15,356.66Zm-3.63,22.94V361.69h3.26V379.6Z" transform="translate(-2.88 -353.33)"/><path class="cls-1" d="M475.18,366.54c0-1.85,0-3.37-.15-4.85h2.89l.18,3h.07a6.59,6.59,0,0,1,5.92-3.36c2.48,0,6.33,1.48,6.33,7.62V379.6h-3.25V369.28c0-2.89-1.08-5.29-4.15-5.29a4.65,4.65,0,0,0-4.37,3.33,4.92,4.92,0,0,0-.22,1.52V379.6h-3.25Z" transform="translate(-2.88 -353.33)"/><path class="cls-1" d="M511.14,361.69c-.07,1.3-.15,2.74-.15,4.93V377c0,4.11-.81,6.63-2.55,8.18a9.48,9.48,0,0,1-6.51,2.15,11.57,11.57,0,0,1-6-1.48l.81-2.48a10.14,10.14,0,0,0,5.26,1.4c3.33,0,5.77-1.74,5.77-6.25v-2h-.07a6.4,6.4,0,0,1-5.7,3c-4.44,0-7.62-3.77-7.62-8.73,0-6.07,4-9.51,8.06-9.51a6,6,0,0,1,5.59,3.11h.07l.15-2.71Zm-3.37,7.07a4.63,4.63,0,0,0-.18-1.48,4.68,4.68,0,0,0-4.55-3.44c-3.11,0-5.33,2.63-5.33,6.77,0,3.52,1.78,6.44,5.29,6.44a4.77,4.77,0,0,0,4.52-3.33,5.77,5.77,0,0,0,.25-1.74Z" transform="translate(-2.88 -353.33)"/><path class="cls-1" d="M537.26,367.91h-9.69v9h10.8v2.7h-14V354.66h13.47v2.7H527.57v7.89h9.69Z" transform="translate(-2.88 -353.33)"/><path class="cls-1" d="M557.76,353.33V375c0,1.59,0,3.4.15,4.62H555l-.15-3.1h-.08a6.63,6.63,0,0,1-6.1,3.51c-4.33,0-7.66-3.66-7.66-9.1,0-6,3.66-9.62,8-9.62a6,6,0,0,1,5.4,2.74h.07v-10.7ZM554.5,369a5.85,5.85,0,0,0-.14-1.37,4.79,4.79,0,0,0-4.7-3.77c-3.37,0-5.37,3-5.37,6.92,0,3.63,1.78,6.62,5.29,6.62a4.9,4.9,0,0,0,4.78-3.88,5.77,5.77,0,0,0,.14-1.41Z" transform="translate(-2.88 -353.33)"/><path class="cls-1" d="M578.15,374.72c0,1.85,0,3.48.15,4.88h-2.89l-.19-2.92h-.07a6.75,6.75,0,0,1-5.92,3.33c-2.81,0-6.18-1.55-6.18-7.84V361.69h3.26v9.92c0,3.41,1,5.7,4,5.7a4.72,4.72,0,0,0,4.3-3,4.87,4.87,0,0,0,.29-1.67v-11h3.26Z" transform="translate(-2.88 -353.33)"/><path class="cls-1" d="M596.31,378.94a12,12,0,0,1-5.14,1c-5.4,0-8.92-3.66-8.92-9.14s3.78-9.51,9.62-9.51a11,11,0,0,1,4.52.93l-.74,2.52a7.5,7.5,0,0,0-3.78-.86c-4.1,0-6.32,3-6.32,6.78,0,4.14,2.66,6.69,6.21,6.69a9.41,9.41,0,0,0,4-.88Z" transform="translate(-2.88 -353.33)"/><path class="cls-1" d="M610,379.6l-.26-2.25h-.11a6.68,6.68,0,0,1-5.48,2.66,5.1,5.1,0,0,1-5.47-5.14c0-4.33,3.85-6.7,10.77-6.66v-.37c0-1.48-.41-4.15-4.07-4.15a9,9,0,0,0-4.67,1.33l-.74-2.14a11.15,11.15,0,0,1,5.89-1.59c5.47,0,6.81,3.73,6.81,7.32v6.7a25.38,25.38,0,0,0,.29,4.29Zm-.48-9.14c-3.55-.07-7.58.56-7.58,4a2.88,2.88,0,0,0,3.07,3.11,4.46,4.46,0,0,0,4.33-3,3.39,3.39,0,0,0,.18-1Z" transform="translate(-2.88 -353.33)"/><path class="cls-1" d="M621.73,356.55v5.14h4.67v2.48h-4.67v9.66c0,2.22.63,3.48,2.44,3.48a7.3,7.3,0,0,0,1.89-.22l.15,2.44a8,8,0,0,1-2.89.44,4.51,4.51,0,0,1-3.51-1.37c-.93-1-1.26-2.55-1.26-4.66v-9.77h-2.78v-2.48h2.78V357.4Z" transform="translate(-2.88 -353.33)"/><path class="cls-1" d="M633.68,356.66a2,2,0,0,1-4,0,2,2,0,0,1,2-2A1.92,1.92,0,0,1,633.68,356.66Zm-3.62,22.94V361.69h3.25V379.6Z" transform="translate(-2.88 -353.33)"/><path class="cls-1" d="M654.92,370.5c0,6.62-4.59,9.51-8.92,9.51-4.84,0-8.58-3.55-8.58-9.21,0-6,3.92-9.51,8.88-9.51C651.44,361.29,654.92,365,654.92,370.5Zm-14.21.19c0,3.92,2.26,6.88,5.44,6.88s5.44-2.92,5.44-7c0-3-1.52-6.88-5.36-6.88S640.71,367.28,640.71,370.69Z" transform="translate(-2.88 -353.33)"/><path class="cls-1" d="M659,366.54c0-1.85,0-3.37-.15-4.85h2.89l.18,3H662a6.59,6.59,0,0,1,5.93-3.36c2.47,0,6.32,1.48,6.32,7.62V379.6H671V369.28c0-2.89-1.08-5.29-4.15-5.29a4.8,4.8,0,0,0-4.59,4.85V379.6H659Z" transform="translate(-2.88 -353.33)"/><path class="cls-1" d="M704.94,378.79a16,16,0,0,1-6.58,1.18c-7,0-12.32-4.44-12.32-12.61,0-7.81,5.29-13.1,13-13.1a13.27,13.27,0,0,1,5.92,1.11L704.2,358a11.76,11.76,0,0,0-5-1c-5.84,0-9.73,3.74-9.73,10.28,0,6.11,3.52,10,9.58,10a12.89,12.89,0,0,0,5.26-1Z" transform="translate(-2.88 -353.33)"/><path class="cls-1" d="M708.87,353.33h3.25v11.18h.08a6,6,0,0,1,2.33-2.3,6.75,6.75,0,0,1,3.33-.92c2.4,0,6.25,1.48,6.25,7.66V379.6h-3.26V369.32c0-2.89-1.07-5.33-4.14-5.33a4.69,4.69,0,0,0-4.37,3.25,4.08,4.08,0,0,0-.22,1.56v10.8h-3.25Z" transform="translate(-2.88 -353.33)"/><path class="cls-1" d="M739.32,379.6l-.26-2.25H739a6.7,6.7,0,0,1-5.48,2.66,5.1,5.1,0,0,1-5.48-5.14c0-4.33,3.85-6.7,10.77-6.66v-.37c0-1.48-.41-4.15-4.07-4.15A9,9,0,0,0,730,365l-.74-2.14a11.14,11.14,0,0,1,5.88-1.59c5.48,0,6.81,3.73,6.81,7.32v6.7a25.32,25.32,0,0,0,.3,4.29Zm-.48-9.14c-3.56-.07-7.59.56-7.59,4a2.88,2.88,0,0,0,3.07,3.11,4.46,4.46,0,0,0,4.33-3,3.41,3.41,0,0,0,.19-1Z" transform="translate(-2.88 -353.33)"/><path class="cls-1" d="M750.86,356.66a2,2,0,0,1-4,0,2,2,0,0,1,2-2A1.93,1.93,0,0,1,750.86,356.66Zm-3.63,22.94V361.69h3.26V379.6Z" transform="translate(-2.88 -353.33)"/><path class="cls-1" d="M755.89,366.54c0-1.85,0-3.37-.15-4.85h2.89l.18,3h.08a6.59,6.59,0,0,1,5.92-3.36c2.48,0,6.33,1.48,6.33,7.62V379.6h-3.26V369.28c0-2.89-1.07-5.29-4.14-5.29a4.77,4.77,0,0,0-4.59,4.85V379.6h-3.26Z" transform="translate(-2.88 -353.33)"/><path class="cls-1" d="M775.65,377.68a2.18,2.18,0,0,1,2.22-2.33,2.33,2.33,0,0,1,0,4.66A2.18,2.18,0,0,1,775.65,377.68Z" transform="translate(-2.88 -353.33)"/><path class="cls-1" d="M783.31,377.68a2.18,2.18,0,0,1,2.22-2.33,2.33,2.33,0,0,1,0,4.66A2.18,2.18,0,0,1,783.31,377.68Z" transform="translate(-2.88 -353.33)"/><path class="cls-1" d="M791,377.68a2.18,2.18,0,0,1,2.22-2.33,2.33,2.33,0,1,1-2.22,2.33Z" transform="translate(-2.88 -353.33)"/></svg>